<svg
  width="54"
  height="54"
  viewBox="0 0 30 30"
  fill="none"
  xmlns="http://www.w3.org/2000/svg"
>
  <path
    fill-rule="evenodd"
    clip-rule="evenodd"
    d="M7.92898 7.92893C7.53845 8.31946 7.53845 8.95262 7.92898 9.34315L13.5858 15L7.92898 20.6569C7.53845 21.0474 7.53845 21.6805 7.92898 22.0711C8.3195 22.4616 8.95267 22.4616 9.34319 22.0711L15 16.4142L20.6569 22.0711C21.0474 22.4616 21.6806 22.4616 22.0711 22.0711C22.4616 21.6805 22.4616 21.0474 22.0711 20.6569L16.4143 15L22.0711 9.34315C22.4616 8.95262 22.4616 8.31946 22.0711 7.92893C21.6806 7.53841 21.0474 7.53841 20.6569 7.92893L15 13.5858L9.34319 7.92893C8.95267 7.53841 8.3195 7.53841 7.92898 7.92893Z"
    fill="currentColor"
  >
  </path>
</svg>
